<?xml version="1.0" encoding="utf-8"?>
<svg viewBox="0 0 500 500" xmlns="http://www.w3.org/2000/svg">
  <defs/>
  <path id="path116" style="fill-opacity: 1; fill-rule: nonzero; fill: rgb(37, 41, 92);" d="M 249.8 236.336 C 241.47 236.336 234.694 243.109 234.694 251.439 C 234.694 259.769 241.47 266.543 249.8 266.543 C 258.13 266.543 264.906 259.769 264.906 251.439 C 264.906 243.109 258.13 236.336 249.8 236.336 Z M 249.8 283.239 C 232.265 283.239 217.992 268.971 217.992 251.439 C 217.992 233.901 232.265 219.629 249.8 219.629 C 267.34 219.629 281.602 233.901 281.602 251.439 C 281.602 268.971 267.34 283.239 249.8 283.239"/>
  <path id="path132" style="fill: rgb(50, 131, 191); fill-opacity: 1; fill-rule: nonzero; stroke: none;" d="M 103.644 117.717 C 99.989 117.717 96.467 115.7 94.719 112.209 C 92.259 107.289 94.254 101.299 99.18 98.836 L 139.042 78.908 C 143.958 76.446 149.945 78.438 152.411 83.367 C 154.871 88.286 152.878 94.273 147.953 96.73 L 108.091 116.665 C 106.66 117.384 105.141 117.717 103.644 117.717"/>
  <path id="path14" style="fill: rgb(63, 187, 107); fill-opacity: 1; fill-rule: nonzero; stroke: none;" d="M 114.423 303.007 C 113.058 394.236 173.009 474.78 259.212 500.587 C 277.353 506.019 295.852 493.23 297.143 474.338 C 297.515 468.891 296.377 463.636 294.058 459.028 C 261.882 451.936 231.579 437.097 206.102 415.497 C 163.953 389.237 131.606 349.517 114.423 303.007"/>
  <path id="path16" style="fill: rgb(32, 104, 51); fill-opacity: 1; fill-rule: nonzero; stroke: none;" d="M 105.96 227.483 C 59.164 305.81 70.81 405.537 132.559 470.99 C 145.554 484.762 167.972 482.938 178.536 467.221 C 186.603 455.214 184.833 439.067 174.216 429.244 C 117.633 376.87 93.487 300.278 105.96 227.483"/>
  <path id="path18" style="fill: rgb(42, 149, 64); fill-opacity: 1; fill-rule: nonzero; stroke: none;" d="M 141.342 151.968 C 59.439 192.173 14.891 282.152 31.031 370.677 C 34.427 389.306 54.221 399.984 71.641 392.555 C 84.946 386.881 92.256 372.376 88.703 358.352 C 69.773 283.613 91.235 206.227 141.342 151.968"/>
  <path id="path20" style="fill: rgb(64, 183, 60); fill-opacity: 1; fill-rule: nonzero; stroke: none;" d="M 212.148 107.909 C 121.558 97.016 35.192 148.219 0.514 231.251 C -6.784 248.727 4.002 268.463 22.657 271.719 C 36.906 274.208 50.938 266.022 55.594 252.326 C 80.424 179.333 140.573 126.12 212.148 107.909"/>
  <path id="path22" style="fill: rgb(127, 203, 45); fill-opacity: 1; fill-rule: nonzero; stroke: none;" d="M 295.526 109.518 C 225.484 51.046 125.163 46.948 50.858 97.699 C 35.22 108.379 33.517 130.806 47.388 143.697 C 57.984 153.546 74.21 154.32 85.575 145.373 C 146.152 97.677 225.577 85.81 295.526 109.518"/>
  <path id="path24" style="fill: rgb(205, 226, 21); fill-opacity: 1; fill-rule: nonzero; stroke: none; paint-order: stroke;" d="M 364.574 156.281 C 337.68 69.094 255.776 11.019 165.818 13.112 C 146.886 13.553 133.242 31.433 137.854 49.799 C 141.377 63.829 154.562 73.316 168.967 72.003 C 245.75 64.997 318.827 98.301 364.574 156.281"/>
  <path id="path26" style="fill: rgb(37, 41, 92); fill-opacity: 1; fill-rule: nonzero; stroke: none;" d="M 397.018 233.105 C 421.947 145.335 384.884 52.021 308.302 4.782 C 292.183 -5.16 271.001 2.405 264.868 20.321 C 260.181 34.005 266.069 49.143 278.868 55.888 C 347.079 91.83 390.227 159.563 397.018 233.105"/>
  <path id="path28" style="fill: rgb(45, 60, 146); fill-opacity: 1; fill-rule: nonzero; stroke: none;" d="M 382.385 315.205 C 451.093 255.172 470.834 156.728 432.333 75.4 C 424.231 58.284 402.346 53.091 387.442 64.773 L 387.442 64.776 C 376.059 73.7 372.754 89.604 379.815 102.229 C 417.446 169.523 416.742 249.828 382.385 315.205"/>
  <path id="path30" style="fill: rgb(58, 115, 193); fill-opacity: 1; fill-rule: nonzero; stroke: none;" d="M 325.396 376.088 C 415.717 363.164 485.889 291.354 497.896 202.173 C 500.423 183.408 484.897 167.134 466.034 168.817 C 451.626 170.102 440.191 181.64 439.237 196.072 C 434.146 273.008 389.82 339.971 325.396 376.088"/>
  <path id="path32" style="fill: rgb(81, 172, 228); fill-opacity: 1; fill-rule: nonzero; stroke: none;" d="M 244.443 396.113 C 327.231 434.467 425.193 412.458 483.833 344.206 C 496.175 329.842 492.015 307.739 475.278 298.876 C 462.495 292.108 446.623 295.555 437.961 307.142 C 391.79 368.89 318.143 400.911 244.443 396.113"/>
  <path id="path34" style="fill: rgb(57, 170, 155); fill-opacity: 1; fill-rule: nonzero; stroke: none;" d="M 412.198 412.991 C 405.164 400.35 389.974 394.597 376.397 399.597 C 304.046 426.236 224.841 412.98 165.642 368.816 C 176.897 386.729 190.609 402.361 206.102 415.497 C 226.734 428.352 249.703 437.998 274.414 443.606 C 283.197 445.601 290.233 451.43 294.058 459.028 C 326.704 466.226 361.276 465.454 394.682 455.664 C 412.856 450.339 421.408 429.538 412.198 412.991"/>
  <path id="path36" style="fill: rgb(63, 187, 107); fill-opacity: 1; fill-rule: nonzero; stroke: none;" d="M 274.414 443.606 C 249.703 437.998 226.734 428.352 206.102 415.497 C 231.579 437.097 261.882 451.936 294.058 459.028 C 290.233 451.43 283.197 445.601 274.414 443.606"/>
  <path d="M 130.352 143.705 L 217.917 143.705 C 221.507 143.722 224.848 144.991 227.205 147.019 C 229.569 149.052 231.091 151.98 231.091 155.106 C 231.091 158.232 229.569 161.16 227.205 163.193 C 224.848 165.221 221.507 166.49 217.917 166.507 L 130.352 166.507 C 126.762 166.49 123.421 165.221 121.064 163.193 C 118.7 161.16 117.178 158.232 117.178 155.106 C 117.178 151.98 118.7 149.052 121.064 147.019 C 123.421 144.991 126.762 143.722 130.352 143.705 Z M 121.716 147.777 C 119.493 149.689 118.178 152.211 118.178 155.106 C 118.178 158.001 119.493 160.523 121.716 162.435 C 123.946 164.353 126.942 165.524 130.352 165.507 L 217.917 165.507 C 221.327 165.524 224.323 164.353 226.553 162.435 C 228.776 160.523 230.091 158.001 230.091 155.106 C 230.091 152.211 228.776 149.689 226.553 147.777 C 224.323 145.859 221.327 144.688 217.917 144.705 L 130.352 144.705 C 126.942 144.688 123.946 145.859 121.716 147.777 Z" style="fill: none;" transform="matrix(0.7071070075035095, 0.7071070075035095, -0.7071070075035095, 0.7071070075035095, 19.988679885864258, 43.14284133911133)"/>
  <path d="M 265.563 265.965 C 267.269 264.26 269.601 263.369 271.831 263.369 C 274.06 263.369 276.377 264.276 278.098 265.965 L 319.26 307.127 C 320.949 308.848 321.855 311.165 321.855 313.394 C 321.855 315.624 320.965 317.956 319.26 319.662 C 317.554 321.367 315.222 322.257 312.992 322.257 C 310.763 322.257 308.446 321.351 306.725 319.662 L 265.563 278.5 C 263.874 276.779 262.968 274.462 262.968 272.232 C 262.968 270.003 263.858 267.671 265.563 265.965 Z M 263.968 272.233 C 263.968 274.284 264.694 276.247 266.271 277.792 L 307.433 318.954 C 308.978 320.531 310.941 321.258 312.992 321.258 C 315.044 321.258 316.992 320.515 318.552 318.954 C 320.113 317.394 320.855 315.446 320.855 313.395 C 320.855 311.343 320.129 309.38 318.552 307.835 L 277.39 266.673 C 275.845 265.096 273.882 264.37 271.831 264.37 C 269.779 264.37 267.831 265.112 266.271 266.673 C 264.71 268.233 263.968 270.181 263.968 272.233 Z" style="fill: none;"/>
  <path id="path-1" style="fill: rgb(37, 41, 92); fill-opacity: 1; fill-rule: nonzero; transform-origin: 285.22px 307.106px;" d="M 344.938 380.653 C 348.395 314.87 309.524 253.979 251.147 231.379 C 238.86 226.623 225.82 235 224.416 248.576 C 223.342 258.945 229.565 268.841 239.148 271.803 C 290.22 287.584 329.309 329.472 344.938 380.653"/>
  <path d="M 321.493 400.125 C 321.493 400.125 321.757 399.131 321.885 398.633 C 322.014 398.134 322.14 397.634 322.263 397.135 C 322.509 396.136 322.746 395.135 322.972 394.135 C 323.424 392.135 323.836 390.128 324.206 388.123 C 324.946 384.115 325.525 380.09 325.945 376.078 C 326.783 368.053 326.988 360.019 326.589 352.088 C 325.789 336.226 322.565 320.661 317.173 306.054 C 306.389 276.842 286.84 251.252 260.577 234.072 C 254.942 230.429 248.327 229.952 242.703 232.082 C 237.081 234.212 232.266 239.006 230.106 245.601 C 228.491 250.647 228.688 256.038 230.416 260.705 C 232.145 265.374 235.466 269.467 239.918 271.974 C 286.501 297.938 315.899 346.841 320.511 400.043 L 321.507 399.957 C 316.825 346.539 287.173 297.244 240.406 271.1 C 236.1 268.717 233.028 264.878 231.354 260.358 C 229.68 255.837 229.466 250.781 231.058 245.909 C 233.094 239.516 237.625 235.075 243.057 233.017 C 248.487 230.961 254.634 231.346 260.03 234.91 C 286.169 251.973 305.502 277.326 316.235 306.401 C 321.601 320.938 324.794 336.353 325.59 352.138 C 325.988 360.031 325.785 367.988 324.95 375.974 C 324.533 379.967 323.959 383.953 323.222 387.942 C 322.854 389.936 322.446 391.924 321.997 393.914 C 321.772 394.91 321.537 395.901 321.292 396.895 C 321.17 397.392 321.045 397.887 320.917 398.383 C 320.789 398.88 320.525 399.875 320.525 399.875 C 320.525 399.874 321.493 400.126 321.493 400.125 Z" style="fill: none;"/>
  <path id="path-2" style="fill: rgb(37, 41, 92); fill-opacity: 1; fill-rule: nonzero; transform-origin: 234.948px 181.302px;" d="M 223.901 90.344 C 236.716 101.211 247.381 113.629 255.767 126.995 C 264.152 140.361 270.259 154.676 273.961 169.34 C 277.665 184.004 278.96 199.016 277.721 213.775 C 276.482 228.534 272.71 243.041 266.277 256.695 C 264.922 259.569 262.926 261.902 260.519 263.654 C 258.111 265.404 255.294 266.573 252.301 267.116 C 249.307 267.659 246.136 267.578 243.022 266.828 C 239.907 266.078 236.849 264.661 234.078 262.533 C 231.962 260.908 230.199 259.001 228.82 256.92 C 227.441 254.84 226.446 252.588 225.865 250.275 C 225.284 247.962 225.116 245.588 225.393 243.264 C 225.67 240.941 226.39 238.669 227.585 236.557 C 233.952 225.307 238.565 213.419 241.488 201.198 C 244.411 188.977 245.644 176.421 245.252 163.834 C 244.859 151.246 242.84 138.627 239.26 126.278 C 235.68 113.929 230.539 101.85 223.901 90.344"/>
  <path d="M 298.509 83.261 C 298.509 83.261 297.605 83.792 297.154 84.061 C 296.703 84.33 296.253 84.602 295.806 84.875 C 294.912 85.421 294.023 85.975 293.143 86.535 C 291.384 87.656 289.65 88.807 287.95 89.984 C 284.549 92.337 281.261 94.806 278.103 97.371 C 271.788 102.5 265.95 108.048 260.648 113.916 C 250.043 125.652 241.5 138.755 235.293 152.588 C 222.88 180.256 219.733 211.069 227.669 240.286 C 229.404 246.53 234.126 251.169 239.928 253.314 C 245.723 255.457 252.77 255.197 259.073 251.939 C 263.874 249.422 267.535 245.481 269.515 241.054 C 271.498 236.623 271.852 231.55 270.218 226.875 C 252.96 178.273 265.057 124.62 299.148 84.011 L 298.382 83.369 C 264.187 124.188 252 178.33 269.276 227.209 C 270.882 231.681 270.516 236.37 268.602 240.646 C 266.687 244.927 263.276 248.639 258.611 251.053 C 252.522 254.253 245.892 254.453 240.275 252.376 C 234.663 250.301 230.236 246.041 228.633 240.024 C 220.713 210.988 223.857 180.522 236.206 152.998 C 242.381 139.235 250.837 126.264 261.39 114.586 C 266.667 108.747 272.448 103.252 278.734 98.147 C 281.877 95.595 285.134 93.149 288.519 90.806 C 290.211 89.635 291.929 88.494 293.68 87.379 C 294.556 86.821 295.437 86.272 296.327 85.728 C 296.772 85.457 297.218 85.188 297.667 84.92 C 298.115 84.652 299.021 84.119 299.021 84.119 C 299.02 84.12 298.51 83.26 298.509 83.261 Z" style="fill: none;"/>
</svg>